<?xml version="1.0" encoding="utf-8"?>
<!-- Generator: Adobe Illustrator 21.0.2, SVG Export Plug-In . SVG Version: 6.00 Build 0)  -->
<svg version="1.1" id="umbrella" xmlns="http://www.w3.org/2000/svg" xmlns:xlink="http://www.w3.org/1999/xlink" x="0px" y="0px"
	 viewBox="0 0 800 800" style="enable-background:new 0 0 800 800;" xml:space="preserve">
<style type="text/css">
	.st0{fill:#FCEE21;}
</style>
<g>
	<g>
		<path class="st0" d="M614.2,194.5c15.6,0,24-9.6,19.2-24.3c-4.4-13.5-11.2-26.3-17.2-39.3c-0.3-0.7-4.2-0.9-4.4-0.4
			c-6,13.2-13,26.1-17.3,39.8C590,185,598.6,194.5,614.2,194.5z"/>
	</g>
	<g>
		<path class="st0" d="M336.5,181c1.3-1,2.1-2.7,3.1-4c-1.7,0.2-3.6-0.1-5.1,0.6c-27.6,13.3-56.9,23.9-82.2,40.6
			c-47.1,31.1-77.6,75-87.6,131.7c-1.2,7,0.6,8.4,7.5,6.5c9.3-2.6,19-4.1,29.6-6.3c9.8,2.3,20.7,3.6,30.6,7.5
			c8.6,3.4,10.5,1.1,11.7-7C254.3,282.9,281.9,224.6,336.5,181z"/>
	</g>
	<g>
		<path class="st0" d="M400,17.5L400,17.5C188.8,17.5,17.5,188.8,17.5,400v0c0,211.2,171.3,382.5,382.5,382.5h0
			c211.2,0,382.5-171.3,382.5-382.5v0C782.5,188.8,611.2,17.5,400,17.5z M583.9,165.5c7.5-22,16.3-43.6,24.9-65.2
			c0.8-1.9,3.6-4,5.7-4.1c1.6-0.1,4.2,2.3,4.9,4.2c8.4,20.8,16.9,41.6,24.5,62.8c8.7,24.2-4.8,43.3-29.8,43.3
			C589.8,206.2,576.1,188.3,583.9,165.5z M651.8,385c-2.8,1.4-8.5-0.3-11.6-2.5c-26.1-19-60-16.7-82.7,5.3
			c-2.7,2.6-10.4,3.4-13.7,1.4c-39.3-24-82.4-31.2-127.4-30.7c-2.1,0-6,5.6-6.1,8.5c-0.4,49.9-0.1,99.8-0.3,149.6
			c-0.2,46.5,0.1,93-1.8,139.4c-0.9,21.1-11.8,39.1-32.8,47c-17.7,6.7-35.4,3.5-49.9-9.2c-14.5-12.7-16.8-30.3-16-48.2
			c0.1-2.7,5.2-6.9,8.3-7.2c2.6-0.3,7.3,3.6,8.2,6.5c2,6.2,1.6,13,3,19.4c2.9,13.6,11.3,21.5,25.4,23.2c14.6,1.7,25.4-3.9,30.8-17.3
			c3.2-8,5.5-16.9,5.6-25.4c0.5-45.9,0.3-91.8,0.3-137.7c0-46.7,0.2-93.4-0.4-140.1c0-3-5.7-8.4-8.8-8.5
			c-44.5-0.7-86.8,7.5-125.5,31c-2.9,1.8-10.4,0.4-13-2.3c-20.8-21-57-23.9-80.9-6.1c-3.5,2.6-9.9,5.1-13,3.6
			c-3-1.5-5.2-8.2-4.9-12.5c5.1-74.1,41.8-130.2,100.9-172.6c40.4-28.9,86.3-44.4,135.1-51.8c8-1.2,11-4.4,10.6-12.4
			c-0.5-8.9-0.9-18.1,0.6-26.9c0.6-3.9,5.9-7,9.1-10.4c3,3.4,7.9,6.5,8.6,10.3c1.4,8.4,1.1,17.1,0.5,25.7
			c-0.6,8.9,2.6,12.5,11.7,13.9c56.9,8.8,109.3,28.5,153.4,66.4c48.6,41.9,78.2,94.1,81.6,159.4C656.8,377.9,654.6,383.6,651.8,385z
			"/>
	</g>
	<g>
		<path class="st0" d="M463.6,176.1c-1.1-0.3-2.3-0.1-3.4-0.1c1,1.3,1.9,2.7,3,4c17.6,19.2,37.2,36.8,52.3,57.8
			c24.4,33.9,36,73.5,42,114.7c0.4,2.5,5.4,6.9,6.5,6.5c22.3-9.7,44.6-9.2,67.2-1.9c1.6,0.5,3.9-1,5.7-1.5c-0.8-4.4-1.1-6.8-1.6-9.1
			C615.8,257.2,543.6,198.6,463.6,176.1z"/>
	</g>
	<g>
		<path class="st0" d="M411.8,170c-6.2-3-16.4-2.9-22.6,0.1c-75.9,36.8-115,99.8-127.2,181.5c-0.6,4.1,0.3,8.4,0.5,12.6
			c3.9-1.3,7.7-2.5,11.6-4c4.1-1.5,8.1-3.3,12.2-4.8c45.6-16.6,93-16.9,140.6-15.3c36.2,1.2,71.5,6.5,104.6,22.3
			c2.2,1,4.8,1.2,7.2,1.8c0.5-2.4,1.1-4.8,1.1-5.1C532,273.9,486.4,206.8,411.8,170z"/>
	</g>
	<path d="M575,214.9c-44-38-96.5-57.7-153.4-66.4c-9.1-1.4-12.3-5-11.7-13.9c0.6-8.5,0.9-17.3-0.5-25.7c-0.6-3.8-5.6-6.9-8.6-10.3
		c-3.2,3.5-8.4,6.6-9.1,10.4c-1.4,8.8-1,17.9-0.6,26.9c0.4,8-2.6,11.2-10.6,12.4c-48.8,7.3-94.8,22.8-135.1,51.8
		c-59.1,42.4-95.7,98.5-100.9,172.6c-0.3,4.2,1.9,11,4.9,12.5c3.1,1.5,9.4-1,13-3.6c23.9-17.7,60-14.9,80.9,6.1
		c2.6,2.6,10.1,4,13,2.3c38.7-23.6,81-31.7,125.5-31c3.1,0,8.8,5.5,8.8,8.5c0.6,46.7,0.4,93.4,0.4,140.1c0,45.9,0.3,91.8-0.3,137.7
		c-0.1,8.5-2.4,17.4-5.6,25.4c-5.4,13.4-16.2,19-30.8,17.3c-14.1-1.7-22.4-9.6-25.4-23.2c-1.4-6.4-1.1-13.2-3-19.4
		c-0.9-2.9-5.6-6.8-8.2-6.5c-3.1,0.3-8.2,4.5-8.3,7.2c-0.8,17.9,1.6,35.5,16,48.2c14.5,12.7,32.1,15.9,49.9,9.2
		c21-7.9,31.9-25.9,32.8-47c1.9-46.4,1.6-92.9,1.8-139.4c0.2-49.9-0.1-99.8,0.3-149.6c0-3,3.9-8.5,6.1-8.5
		c45-0.5,88.2,6.7,127.4,30.7c3.2,2,11,1.2,13.7-1.4c22.8-22,56.6-24.3,82.7-5.3c3.1,2.2,8.8,3.9,11.6,2.5c2.8-1.4,5-7.1,4.8-10.8
		C653.2,309,623.6,256.7,575,214.9z M244.2,350.6c-1.2,8.1-3.1,10.4-11.7,7c-9.9-3.8-20.7-5.2-30.6-7.5c-10.6,2.2-20.3,3.6-29.6,6.3
		c-6.8,1.9-8.7,0.6-7.5-6.5c10-56.7,40.5-100.6,87.6-131.7c25.3-16.7,54.6-27.4,82.2-40.6c1.4-0.7,3.4-0.4,5.1-0.6
		c-1,1.3-1.8,3-3.1,4C281.9,224.6,254.3,282.9,244.2,350.6z M538.7,364.1c-2.4-0.6-5-0.7-7.2-1.8c-33.1-15.8-68.4-21.1-104.6-22.3
		c-47.6-1.5-95-1.3-140.6,15.3c-4.1,1.5-8.1,3.3-12.2,4.8c-3.8,1.4-7.7,2.6-11.6,4c-0.2-4.2-1.1-8.5-0.5-12.6
		c12.1-81.7,51.3-144.7,127.2-181.5c6.2-3,16.4-3.1,22.6-0.1c74.6,36.7,120.2,103.9,128.1,188.9
		C539.8,359.3,539.3,361.7,538.7,364.1z M631.2,357c-22.7-7.3-45-7.8-67.2,1.9c-1.1,0.5-6.1-3.9-6.5-6.5c-6-41.2-17.6-80.7-42-114.7
		c-15.1-20.9-34.7-38.6-52.3-57.8c-1.1-1.2-2-2.6-3-4c1.1,0,2.4-0.2,3.4,0.1c80,22.5,152.2,81,171.7,170.3c0.5,2.3,0.8,4.7,1.6,9.1
		C635.1,356,632.8,357.5,631.2,357z"/>
	<path d="M614.1,206.3c25,0.1,38.5-19,29.8-43.3c-7.6-21.1-16.1-41.9-24.5-62.8c-0.7-1.9-3.4-4.3-4.9-4.2c-2,0.2-4.9,2.2-5.7,4.1
		c-8.6,21.6-17.4,43.2-24.9,65.2C576.1,188.3,589.8,206.2,614.1,206.3z M594.6,170.3c4.3-13.8,11.3-26.7,17.3-39.8
		c0.2-0.5,4.1-0.3,4.4,0.4c6,13,12.8,25.8,17.2,39.3c4.8,14.7-3.6,24.4-19.2,24.3C598.6,194.5,590,185,594.6,170.3z"/>
</g>
</svg>
