<?xml version="1.0" encoding="utf-8"?>
<!-- Generator: Adobe Illustrator 21.0.2, SVG Export Plug-In . SVG Version: 6.00 Build 0)  -->
<svg version="1.1" id="lotus" xmlns="http://www.w3.org/2000/svg" xmlns:xlink="http://www.w3.org/1999/xlink" x="0px" y="0px"
	 viewBox="0 0 800 800" style="enable-background:new 0 0 800 800;" xml:space="preserve">
<style type="text/css">
	.st0{fill:#44A99D;}
</style>
<g>
	<g>
		<path class="st0" d="M400,17.5L400,17.5C188.8,17.5,17.5,188.8,17.5,400v0c0,211.2,171.3,382.5,382.5,382.5h0
			c211.2,0,382.5-171.3,382.5-382.5v0C782.5,188.8,611.2,17.5,400,17.5z M704.3,334.2c-13.3,31-25.3,65.5-42.4,97.2
			c-25.4,47.1-68.9,69.4-121.4,78.5c32.4-33.5,34.5-74.1,31.9-115.9c-0.1-1.5,0.5-3.5,1.5-4.5C610.9,349.6,660.3,340.3,704.3,334.2z
			 M627.3,298.5c0.8-0.3,3.3,1.3,3.3,1.9c-0.1,19.9-2.5,38.2-23.7,48.5c-10.9,5.3-20.4,13.5-30.9,20.7c0.4-3.2,0.1-6.5,1.1-9.4
			c6.8-18.9-4-14.4-13.5-9.8c-28.7,13.9-57.2,28.4-88.1,40.5c28.7-21.9,56.3-45.6,86.6-65C581.7,313.5,605.4,307.4,627.3,298.5z
			 M466.2,289.4c22.9-14.2,45.9-28.3,69-42.2c0.6-0.4,3.7,1.4,3.7,2.2c-0.2,20.5-0.1,41-1.5,61.4c-0.3,4.4-5.1,9.4-9,12.7
			c-21.9,18.6-44.1,36.8-57.5,47.9c-1.7-19.4-4.3-49-6.8-78.6C464.1,291.7,465.2,290,466.2,289.4z M361,272.3
			c10.8-24.9,25.1-48.3,38-72.3c0.4-0.7,2.8-1.2,2.9-1c27.1,46.1,55.6,91.7,55,148c-0.1,11.5-3.7,23-5.4,32.7
			c-16.2-30.5-32.3-61-48.7-91.4c-0.3-0.6-3.8-0.6-4.1,0c-16.4,30.5-32.6,61.1-48.1,90.4C336.5,343.4,345.9,307.1,361,272.3z
			 M398.6,327.3c0.2-0.4,2-0.5,2.2-0.2c27.1,45.8,55.2,91.3,55.3,147c0.1,33.9-17.9,60.5-47.9,72.4c-17.2,6.9-48.5-13.6-58.1-39.7
			c-4.6-12.4-6-25.9-7.3-31.8C346.4,414.8,372.6,371.1,398.6,327.3z M261,254.7c0.1-2.1,6.8-6.2,8.7-5.3
			c11.7,5.1,23.3,10.8,34.2,17.4c19,11.4,36.3,20.9,26.8,51.1c-6.2,19.6,0.7,43.3,1.3,55.2c-17.6-14-42.5-32.7-65.9-53.3
			c-5-4.4-5.3-15.2-5.7-23.2C259.6,282.6,260.1,268.6,261,254.7z M170.6,297.5c60,16.5,109.4,49.3,147.1,93.5
			c-24.7-12.4-52.3-26.5-80.1-40.3c-30.3-15.1-12.1,10.4-16.5,21.5c-17.3-16.1-34.6-30.5-49.3-47.1c-4.7-5.4-2.8-16.7-3.7-25.3
			C168.1,299.1,170,297.3,170.6,297.5z M218.4,384.2c3.6,3.5,6.1,10.2,6,15.3c-1.3,40,1.6,78.6,31.7,109.5
			c-56.1,0.7-121.3-55.6-137.3-115c-5.8-21.5-18.3-41.3-26.9-60C134.6,339.6,181.5,348.9,218.4,384.2z M57.6,425.7
			c0-0.3,0-0.6,0-0.9c5.9-2.3,11.9-4.5,17.8-6.8c22-8.5,34.3,1.8,42.7,21.2c1.9,4.4,6.7,7.7,10.2,11.4
			C103.4,460.3,82.1,452.8,57.6,425.7z M83.3,479.8c16.8-6.9,33.3-15.6,50.8-19c4-0.8,11.6,16.6,16.7,24.3
			c-18.1,18.4-43.3-0.7-68.3-2.5C82.8,481.6,82.8,480,83.3,479.8z M114,517c-0.3-0.2,0-2.5,0.6-2.8c15.5-8.6,30.8-17.4,46.6-25.2
			c2.8-1.4,8.1,0.7,11.6,2.3c22.5,10.3,44.9,20.9,65,30.3C215,537.9,142,537.2,114,517z M203.6,568.3c14.9-11.8,30.8-25.5,48.1-37.2
			c4-2.7,13.1,0.2,19,2.5c22.9,9,45.6,18.9,64.6,26.9C318.2,573.4,231.4,580.3,203.6,568.3z M244.9,463.7c-4.4-20.6-3-42.4-4.3-63.7
			c-0.5-8.4-0.9-16.8-1.5-28c22.3,11.6,44.8,22.3,66.1,35c16.7,9.9,25.1,23.9,22.3,46c-3.7,29.5-0.5,59.1,23.1,81.8
			c-1.4,1.1-2.8,2.8-4.4,3.1C298.3,546.6,256.1,516.9,244.9,463.7z M447.5,584.6c-12.7,10.9-30,16.2-42.6,22.3
			c-16.7-4.3-28.3-5.9-38.7-10.2c-22.1-9.1-25.1-26.2-8.5-43.4c0.5-0.6,2.5-0.3,3.5,0.2c13.1,6.2,26,17.2,39.1,17.3
			c12.6,0.1,25.3-11.1,37.9-17.4c0.8-0.4,1.5-1,2.2-1.6C443.1,563.2,451.6,581.2,447.5,584.6z M445.9,536.5c1.1-1.4,2.1-2.8,3.3-4.1
			c22.5-24.7,21.6-54.8,21.4-85.5c-0.1-10.6,4.3-25.7,12-31.2c23.5-16.9,49.6-30.2,76.1-45.7c-1.4,31.9-0.4,59.4-4.3,86.1
			c-8.1,56.5-52.8,90.8-103.2,81.8C449.4,537.6,447.7,537,445.9,536.5z M463.9,558.2c15.8-4.5,40.6-4.6,54.1-16.9
			c28.4-25.9,40.7-4.3,57.8,11.3c7,6.4,16,10.5,23.5,15.2C552.4,580.7,505.2,574,463.9,558.2z M657.3,527.3c-33.9,9-67.1,8.2-93-5.3
			c20.6-10.3,43.5-23.5,67.9-32.9c7.3-2.8,19.4,3.4,28.1,7.8c10,5.1,18.7,12.8,28,19.3C677.9,519.9,667.9,524.5,657.3,527.3z
			 M716,482.8c-7.4,1.5-14.8,4-22.2,4.2c-16.6,0.6-33.3,0.2-45.1,0.2c6.5-9.8,14.1-27.3,18.3-26.5c17.3,3.1,33.6,11.8,50.2,18.5
			c1,0.4,1.6,1.8,2.4,2.8C718.4,482.3,717.2,482.6,716,482.8z M726.2,441.4c-16.5,6.7-34,11.2-56,18.1c11.3-19,16.6-32.1,25.7-41.4
			c4.1-4.2,16.1-2,24.2-0.6c7.7,1.3,15,5.3,22.5,8C737.2,430.9,732.7,438.7,726.2,441.4z"/>
	</g>
	<path d="M128.2,450.6c-3.4-3.7-8.2-7-10.2-11.4c-8.4-19.4-20.7-29.7-42.7-21.2c-5.9,2.3-11.9,4.5-17.8,6.8c0,0.3,0,0.6,0,0.9
		C82.1,452.8,103.4,460.3,128.2,450.6z"/>
	<path d="M408.3,546.5c30-11.9,48-38.5,47.9-72.4c-0.1-55.8-28.2-101.3-55.3-147c-0.2-0.3-2-0.2-2.2,0.2
		c-26,43.8-52.2,87.5-55.8,147.7c1.3,5.9,2.8,19.4,7.3,31.8C359.8,532.9,391.1,553.4,408.3,546.5z"/>
	<path d="M256.1,509c-30.2-30.9-33.1-69.5-31.7-109.5c0.2-5.1-2.3-11.8-6-15.3c-36.8-35.3-83.8-44.6-126.4-50.1
		c8.6,18.7,21.1,38.4,26.9,60C134.7,453.5,200,509.8,256.1,509z"/>
	<path d="M573.9,389.4c-1,1.1-1.6,3-1.5,4.5c2.6,41.9,0.5,82.4-31.9,115.9c52.5-9.1,96-31.4,121.4-78.5
		c17.1-31.7,29.1-66.2,42.4-97.2C660.3,340.3,610.9,349.6,573.9,389.4z"/>
	<path d="M327.6,453c2.7-22.1-5.7-36.1-22.3-46c-21.3-12.7-43.9-23.3-66.1-35c0.6,11.2,1,19.6,1.5,28c1.2,21.3-0.1,43.1,4.3,63.7
		c11.3,53.2,53.4,82.9,101.4,74.2c1.6-0.3,2.9-2.1,4.4-3.1C327.1,512,323.9,482.4,327.6,453z"/>
	<path d="M554.4,456.2c3.9-26.8,2.9-54.3,4.3-86.1c-26.5,15.5-52.6,28.8-76.1,45.7c-7.7,5.6-12.1,20.6-12,31.2
		c0.2,30.7,1.1,60.7-21.4,85.5c-1.2,1.3-2.2,2.7-3.3,4.1c1.8,0.5,3.5,1.1,5.3,1.4C501.6,547,546.3,512.7,554.4,456.2z"/>
	<path d="M398.7,288.2c0.3-0.6,3.8-0.6,4.1,0c16.3,30.4,32.5,60.9,48.7,91.4c1.7-9.7,5.2-21.2,5.4-32.7c0.7-56.2-27.9-101.9-55-148
		c-0.1-0.2-2.5,0.3-2.9,1c-12.9,24-27.2,47.4-38,72.3c-15.1,34.9-24.5,71.1-10.4,106.4C366.2,349.3,382.4,318.7,398.7,288.2z"/>
	<path d="M528.4,323.5c3.9-3.3,8.7-8.2,9-12.7c1.3-20.4,1.3-40.9,1.5-61.4c0-0.8-3.1-2.6-3.7-2.2c-23.1,13.9-46.1,28-69,42.2
		c-1,0.6-2.1,2.3-2,3.3c2.5,29.6,5.1,59.2,6.8,78.6C484.3,360.3,506.6,342.1,528.4,323.5z"/>
	<path d="M266.1,319.8c23.4,20.6,48.4,39.3,65.9,53.3c-0.6-11.9-7.5-35.6-1.3-55.2c9.6-30.2-7.8-39.7-26.8-51.1
		c-11-6.6-22.5-12.3-34.2-17.4c-1.9-0.8-8.6,3.2-8.7,5.3c-1,13.9-1.4,28-0.7,41.9C260.8,304.5,261.1,315.4,266.1,319.8z"/>
	<path d="M563.6,350.5c9.5-4.6,20.3-9,13.5,9.8c-1,2.9-0.8,6.2-1.1,9.4c10.5-7.2,20-15.4,30.9-20.7c21.1-10.3,23.6-28.6,23.7-48.5
		c0-0.7-2.5-2.3-3.3-1.9c-21.9,8.8-45.5,15-65.1,27.5c-30.3,19.4-57.9,43.1-86.6,65C506.4,378.9,534.9,364.4,563.6,350.5z"/>
	<path d="M221.1,372.2c4.3-11-13.8-36.5,16.5-21.5c27.8,13.8,55.5,27.9,80.1,40.3c-37.7-44.2-87.2-77-147.1-93.5
		c-0.6-0.2-2.5,1.6-2.4,2.3c0.9,8.6-1.1,20,3.7,25.3C186.5,341.7,203.8,356,221.1,372.2z"/>
	<path d="M438.2,553.4c-12.6,6.3-25.3,17.5-37.9,17.4c-13.1-0.1-26-11.1-39.1-17.3c-1-0.5-3-0.8-3.5-0.2
		c-16.6,17.2-13.6,34.4,8.5,43.4c10.5,4.3,22.1,5.9,38.7,10.2c12.6-6.1,29.9-11.5,42.6-22.3c4-3.5-4.4-21.4-7.1-32.8
		C439.7,552.4,439,553,438.2,553.4z"/>
	<path d="M518,541.3c-13.6,12.4-38.3,12.4-54.1,16.9c41.4,15.8,88.5,22.4,135.4,9.5c-7.4-4.7-16.5-8.8-23.5-15.2
		C558.7,537,546.4,515.4,518,541.3z"/>
	<path d="M251.7,531.1c-17.3,11.7-33.2,25.4-48.1,37.2c27.8,11.9,114.6,5.1,131.6-7.9c-19-8-41.6-17.8-64.6-26.9
		C264.7,531.2,255.7,528.4,251.7,531.1z"/>
	<path d="M172.9,491.4c-3.6-1.6-8.8-3.7-11.6-2.3c-15.8,7.8-31.2,16.6-46.6,25.2c-0.6,0.3-0.9,2.6-0.6,2.8
		c28,20.2,101,20.9,123.8,4.6C217.8,512.3,195.4,501.7,172.9,491.4z"/>
	<path d="M632.2,489.1c-24.4,9.4-47.3,22.6-67.9,32.9c25.9,13.5,59.2,14.2,93,5.3c10.5-2.8,20.6-7.3,30.9-11.1
		c-9.3-6.6-18-14.2-28-19.3C651.5,492.5,639.5,486.2,632.2,489.1z"/>
	<path d="M695.9,418c-9.1,9.3-14.4,22.4-25.7,41.4c22-6.9,39.4-11.4,56-18.1c6.6-2.7,11-10.5,16.5-15.9c-7.5-2.8-14.8-6.7-22.5-8
		C712,416,700.1,413.8,695.9,418z"/>
	<path d="M150.8,485c-5.1-7.7-12.6-25.1-16.7-24.3c-17.5,3.4-34,12.1-50.8,19c-0.6,0.2-0.6,1.8-0.8,2.8
		C107.5,484.3,132.7,503.4,150.8,485z"/>
	<path d="M717.2,479.2c-16.6-6.7-32.9-15.4-50.2-18.5c-4.3-0.8-11.8,16.7-18.3,26.5c11.8,0,28.5,0.4,45.1-0.2
		c7.4-0.3,14.8-2.8,22.2-4.2c1.2-0.2,2.4-0.5,3.6-0.8C718.8,481,718.2,479.6,717.2,479.2z"/>
</g>
</svg>
