<?xml version="1.0" encoding="utf-8"?>
<!-- Generator: Adobe Illustrator 21.0.2, SVG Export Plug-In . SVG Version: 6.00 Build 0)  -->
<svg version="1.1" id="tree" xmlns="http://www.w3.org/2000/svg" xmlns:xlink="http://www.w3.org/1999/xlink" x="0px" y="0px"
	 viewBox="0 0 800 800" style="enable-background:new 0 0 800 800;" xml:space="preserve">
<style type="text/css">
	.st0{fill:#FFE3FF;}
</style>
<g>
	<g>
		<path class="st0" d="M399.5,380.2c-4.5-11.3-9.1-22.5-14-34.9C377.9,362.7,385.9,372.7,399.5,380.2z"/>
	</g>
	<g>
		<path class="st0" d="M425.9,366c-0.5-3.1-3-5.9-4.6-8.8c-2.2,2.2-4.9,4.2-6.6,6.8c-1.9,3.1-3,6.7-4.4,10c3.7-0.2,7.6-0.4,13-0.7
			C424.1,371.4,426.2,368.5,425.9,366z"/>
	</g>
	<g>
		<path class="st0" d="M397.9,325.6c-2.1-3.9-2.8-6.6-4.6-8.2c-3.7-3.3-7.8-6-11.8-9c-2.9,5.7-6.1,11.4-8.6,17.3
			c-1.5,3.6-1.8,7.7-2.9,12.5c2.3,0.8,6.5,2.2,12.4,4.2C381.6,331,386.2,325.1,397.9,325.6z"/>
	</g>
	<g>
		<path class="st0" d="M693.4,424.1c4.2,1.7,8.5,3.4,12.7,5c-3.5,1.2-8.2,4.4-10.2,3.2c-6.6-4-8.1-1.4-9.8,4.5
			c-0.6,2.1-3.7,3.6-5.9,5.3c2.1,0.9,4.6,2.9,6.2,2.3c10.8-4,21.3-8.5,31.9-12.9c-0.1-0.7-0.1-1.3-0.2-2c-4.1,0-8.3,0-12.4,0
			c2.9-2.7,5.7-5.6,8.8-8.1c3.2-2.5,6.6-4.5,10-6.8c-0.8-1.3-1.6-2.5-2.5-3.8C712.5,415.3,702.9,419.7,693.4,424.1z"/>
	</g>
	<g>
		<path class="st0" d="M302.7,405.2c4.1,7.4,8.1,14.5,12,21.6c1.5,0.2,2.9,0.3,4.4,0.5c1.3-4.7,4.9-10.4,3.4-13.8
			C319.2,406,313.1,400.1,302.7,405.2z"/>
	</g>
	<g>
		<path class="st0" d="M405.1,495.5c1.2-0.6,2.7-1,3.7-1.9c3.1-2.7,8.7-5.8,8.4-8.3c-1.2-13.3,8.4-11.8,15.9-15
			c-1.8-0.7-3.7-2-5.5-2.1c-8.9-0.1-31.8,14.6-33.4,22.8c-0.9,4.6,1.4,13.6,4,14.3C403.7,506.8,411.1,504.8,405.1,495.5z"/>
	</g>
	<g>
		<path class="st0" d="M398,457.5c3.9-9.1,4.6-19.9,9.9-27.9c5.6-8.3,1.3-11.5-3.5-15.9c-5.3-4.8-10.9-9.2-17.2-14.6
			c-1.3,1.1-3.8,3.2-6.2,5.4c-0.7-0.3-1.4-0.7-2.1-1c1.4-5.2,2.9-10.3,4.5-16c-0.6-0.3-2.1-1.7-3.5-1.6c-6.1,0.6-7.3,3.9-9.4,10
			c-1.8,5.2-10,9.3-10,13.9c-0.1,10.3,3,20.7,5.1,31c0.5,2.2,2.7,5.9,4,5.9c6.7-0.2,5.4,3.3,6.6,8c1.2,4.4,7.9,8.2,13,10.1
			C391,465.5,396.6,460.8,398,457.5z"/>
	</g>
	<g>
		<path class="st0" d="M383.5,378.7C372.7,371,364,365,358.4,361C359.2,375.1,362.7,378.9,383.5,378.7z"/>
	</g>
	<g>
		<path class="st0" d="M144.3,385.1c-2,0.6-4,1.1-6.6,1.9c-0.3-5.1-0.5-9.7-0.8-14.3c-4.2-1.6-10.4-8.2-8.6,4.1
			c0.3,2.3-4.2,7.8-5.4,7.5c-10.3-2.5-4.6,5.6-6.1,8.7c0,0,0.1,0,0.1,0c0.3,0.2,0.5,0.4,0.8,0.6
			C133.1,397.2,146.5,393.5,144.3,385.1z"/>
	</g>
	<g>
		<path class="st0" d="M422.3,458.5c-3.2-9.7-1-14,10.3-11.5c-4-5.1-6.7-8.5-11.1-14C422.4,443.1,412.1,450,422.3,458.5z"/>
	</g>
	<g>
		<path class="st0" d="M400,17.5L400,17.5C188.8,17.5,17.5,188.8,17.5,400v0c0,211.2,171.3,382.5,382.5,382.5h0
			c211.2,0,382.5-171.3,382.5-382.5v0C782.5,188.8,611.2,17.5,400,17.5z M743.3,440.6c2.5-5.2,4.9-10.2,8.3-17.4
			c-6.9,4.4-12,7.6-17.6,11.2c2.8,2.5,5.2,4.6,7.6,6.6c-9.1-0.2-17.4,13.7-26.9,1.2c-0.7-0.9-8.9,1.6-10.4,4.3
			c-5.8,10.7-12.1,15.8-23.2,6.5c-1.8-1.5-5.8-3.1-7-2.3c-15.2,11.3-35.9,3.4-51,14.8c-7-12.9-11.8-0.1-17.3,1.7
			c-4,1.3-7.5,4-11.2,6c2.4-2.6,4.9-5.2,7.1-7.6c-3.2-2-6.6-4.2-12.4-7.8c-7,6.8-15.3,14.9-23.6,23c0.7,0.8,1.4,1.6,2.1,2.3
			c4.6-1.5,9.3-3.1,13.9-4.6c1,1.6,1.6,4,3,4.7c13.3,6.8,20.9-4.9,30.6-9.8c4.6,1.2,9.2,2.5,14.7,4c-5.5,2-10.5,3.9-16.3,6
			c1.2,2.7,2.2,5,4.3,10c-6-2.4-9.7-3.9-13.5-5.5c-0.2,2.8-0.5,6.5-0.8,10.2c10.8,0.7,21.7-13.6,32.5,0.3c0.3,0.3,3-1.8,4-1.4
			c1.9,0.8,10-4.5,4.9,4.3c4.1,0.2,10.7,2.1,11.9,0.3c5.1-7.8,10-5.9,15.4-1.9c-15.1,13.3-31.1,5-47.2,2.1c-6.3-1.1-13-0.1-22.6,0.1
			c3.8,6.8,5.2,9.4,6.6,11.9c-1,0.5-2.1,1-3.1,1.6c-3.4-6-6.8-12-11.3-20c-6,0.9-16.1,2.5-26.2,4c0.1-2.9,1.4-7.5,0.1-8.4
			c-2.3-1.6-7.3-2.5-9.2-1.1c-5.4,4.1-9.8,9.5-16.7,16.4c7.5-1,11.5-1.5,15.4-2c-8.1,4.2-16.3,8.3-24.3,12.7c-4.1,2.3-8,5-11.4,7.2
			c17.6,3.6,33.9,7,50.3,10.3c-0.1,1.6-0.2,3.2-0.4,4.7c-7.2-0.4-14.4-1.5-21.5-1c-4.5,0.3-8.7,4.3-13.2,4.6
			c-10.6,0.7-21.3,0.2-33.9,0.2c3-4.9,4.2-6.8,5.3-8.6c-1-1.1-2-2.3-3-3.4c-9.5,7.8-19,15.6-29.4,24.2c3.3,2.1,5.2,3.4,7.2,4.7
			c-0.6,0.4-1.1,1.2-1.6,1.1c-9.1-0.9-12.5,2-15,12.1c-6.9,28.7-2.9,54.2,16.7,76.8c-5.7,1.8-9.7,3-13.6,4.2c-12.9,0-25.8,0-38.8,0
			c-11-1.3-22-2.6-30.2-3.6c3.9-9.5,11.6-19.6,10.9-29c-0.7-9.8-9.4-19.2-15-28.5c-6.9-11.5-14.9-22.4-21-34.3
			c-3.6-7.1-12.1-12-10.4-22.1c0.3-1.5-6.3-4.9-10.2-6.2c-26.3-8.9-51.8-4-77.1,4.3c0.1-6.3,0.1-6.3,35.3-14.3
			c-7.5-1.5-10.5-17.5-22.9-5.6c-1.9,1.8-9.6-2.5-14.4-3.9c-2.4,5.3-4,8.8-5.5,12.3c-1-0.4-1.9-0.9-2.9-1.3c0.9-1.8,1.8-3.7,2.7-5.4
			c-5.8,0.3-11,0.6-17.8,0.9c2.9,4.8,6.2,10.3,9.2,15.2c-3.9,0-9.4,0-13.8,0c-3.4-4.8-7.5-8.7-9-13.4c-1.1-3.5,1.2-8,2-12.1
			c-3.9-0.2-7.8,0-11.6-0.7c-1.4-0.3-2.4-2.6-3.6-4c-1.1,0.6-2.1,1.2-3.2,1.8c1.9,4.1,3.7,8.3,5,11c-1.9,3.1-3.8,5.6-5.1,8.4
			c-0.9,2-1,4.3-1.4,6.5c-1.3-2.3-2.7-4.5-3.8-6.9c-0.4-0.8,0.1-2,0.2-4c-7.5,2.5-13,17.1-21.4,3.2c3.4-1.2,6.9-2.5,10.3-3.7
			c-0.3-1.4-0.7-2.7-1-4.1c-4.9-2.8-9.8-5.6-14.8-8.4c-0.8,0.7-1.6,1.3-2.4,2c1.8,3.9,3.5,7.7,5.3,11.6c-3.8-0.8-7.6-1.6-11.7-2.5
			c0.3-2.1,0.8-5.6,1.9-12.7c-8.7,7.4-14.9,12.6-22.3,18.9c-1.8-6.9-3-11.9-3.7-14.4c4.2-4,6.8-6.4,9.4-8.9c-3-2.7-6.1-5.5-8-7.3
			c14.5-4.5,30.9-9.5,47.3-14.5c-17-8.4-30.5-25.6-52.4-15.1c-1.1-2.5-2.1-4.9-3.5-8.1c-7.3,5.7-12.8,5.5-14-5.1
			c5.1-2.3,10.2-4.7,17.7-8c-10.6-6-19.2-10.9-27.8-15.8c5.5-0.9,11.8-1.3,15.2,1.6c9,8,17.1,16.2,30.4,7.8c-1.2,2-2.3,3.9-3.2,5.3
			c11.9,5.4,17.7-1.6,22-14.6c2,6.4,3,9.4,3.8,11.8c8.9,2.3,17.3,4.6,27.3,7.2c-14.2-23.2-39.6-20.2-59.9-33.6
			c1.6,7.8,2.4,11.8,3.3,16.4c-6.7-0.9-12.4-1.7-21-2.9c7.3-2,11.6-3.3,15.9-4.5c0-1.3,0.1-2.7,0.1-4c-5.8-2.7-15.6-4.4-16.7-8.4
			c-3.4-12.6-12-9.3-20-10.1c-2.4-0.2-4.5-2.8-6.7-4.6c-0.4-0.1-0.7-0.2-1.1-0.3c0.1-0.1,0.2-0.2,0.2-0.4c-2.8-1.3-5.5-2.5-6.9-3.1
			c-5.7,4.2-11.1,8.2-17.1,12.6c1.8,10.5,3.9,22.6,6,34.6c6.8,2.6,13.6,5.2,20.4,7.8c-8.3,0.1-16.6-0.5-24.8,0.4
			c-3.9,0.4-7.5,3.5-13.2,6.4c-0.7-1.9-1.8-5.2-3-8.5c3.8-0.3,7.8-0.1,11.4-1.2c2.5-0.7,4.7-2.4,7-4c-0.7,0.3-1.3,0.5-1.7,0.7
			c-0.7-5.5-1.4-11.1-2.5-19.3c-6.1,7.5-10.3,12.6-14.5,17.7c-2-3.1-3.4-7.9-6.3-9c-9.4-3.7-19.4-6-30.7-6.3
			c4.5,3.5,8.9,7,13.4,10.5c-0.5,0.9-0.9,1.9-1.4,2.8c-6.4-3-12.9-6.1-19.7-9.3c1.9-7,2-16.2,6.5-21.8c5.2-6.5,14.4-9.7,23.6-15.5
			c7.9,1.8,18,4.4,28.2,6.3c1.9,0.4,5.5-1.2,6.2-2.8c8-18.7,7.9-18.8,25.4-24.9c-3.7-2.2-6.9-4.2-10.2-6.1c0.4-0.8,0.8-1.6,1.3-2.4
			c9.4,2.8,18.9,5.6,28.3,8.4c2.9,0.2,5.9,0.4,8.8,0.6c-12.8-4.2-14.2-30-34.7-17.7c-1.5-11.8-6.2-13.7-19.9-7.2
			c4.3,0.9,7.4,1.5,12,2.4c-8.6,3.5-16.1,6.5-23.7,9.6c-5.7,2.2-6.3-15.2-18.9,1.3c1.8-11.2,2.8-17.2,3.7-22.4
			c7,1,13.6,1.9,24.4,3.3c-4.3-8.1-7-13-9.7-18c-1.1,0.4-2.1,0.8-3.2,1.3c1.5-3.6,3-7.3,5.1-12.2c1.4,3,2.4,5.2,3.7,8.2
			c6.2-3.9,1.8-22.3,17.7-8.8c-0.6-5.9-0.9-8.6-1.2-10.8c9.5-7.8,27.9-1.2,30.8-20.4c-3.9-1.9-7.5-3.7-11.7-5.8
			c3.6-6.4,7.2-12.9,9-16.1c13.6,0,25.2,0,38.8,0c-3.4-4.5-5.4-7-7.6-9.8c2.2-0.9,4.2-1.8,6.3-2.7c-0.1-0.6-0.1-1.3-0.2-1.9
			c-3.6,0-7.2,0-10.8,0c-0.7-0.9-1.4-1.8-2.2-2.7c3.8-3.2,7.3-8.4,11.6-9.2c17.9-3.4,36-5.4,54-8.2c4.9-0.8,9.6-3,14.6-3.9
			c6.5-1.2,13.2-1.8,20.9-2.9c1.9-2.4,5.6-6.9,9.2-11.4c0.3-4,0.6-8.9,1-14c-1.7-0.7-4.1-1.8-7-3.1c18.1-15.8,17.6,6.7,23.9,10.5
			c7.5-3.4,13.7-6.2,20.7-9.4c-3-2.8-5.3-5-7.9-7.5c-2.9,3.2-5.2,5.8-9.1,10.2c-0.9-8-1.5-13.6-2.3-21.3c3.2,3.5,4.8,6.3,7.2,7.7
			c1.5,0.8,6.2-0.5,6.1-0.8c-0.3-12.6,11-5.5,15.6-9.4c8.4,11,11.1-0.2,13.3-4.4c5.3-10.1,10.7-11.4,17.1-2.8
			c3.6-4.1,6.3-10.1,9.8-10.6c3.4-0.5,7.6,4.6,12.5,8c2.2-2.5,5.2-5.7,8.3-9.1c1.7,4.3,3.2,8.2,5.7,14.8c2.6-4.9,3.8-7.2,5.2-10
			c2,2.4,3.8,4.6,6,7.2c2.4-2.7,4.8-5.3,7.5-8.2c3.2,3.6,5.8,6.7,8.5,9.8c5.6-5.8,10.8-13,15.3-2.8c6.6-0.4,12.7-1.8,18.5-0.9
			c15.9,2.6,31.6,7.4,47.5,9.1c15.4,1.6,25.5,11.9,37.8,18.6c4.1,2.3,7.3,6.9,9.9,11.1c1.7,2.8,1.7,6.6,2.5,10.3
			c2.4-0.2,6.8-0.6,8.8-0.8c6,9.1,11,16.6,16.2,24.6c4.6-2.8,7.8-4.7,13.8-8.3c-3.4,7-7,11.2-6.9,15.3c0.1,3.3,4.7,6.6,7.9,10.6
			c-4.3,2.2-10,5.1-15.7,7.9c0.5,1,1,2,1.5,3c9.8-4.4,19.6-8.8,29.7-13.3c-12,20.9,10.6,11.9,15.5,18.6c1.3,4.5,2.6,9.3,4,14
			c6.8-2.2,13.5-4.5,22.8-7.5c3.3,3.8,8.5,9.9,14.6,17c-4.7,0.6-7.5,1-10.3,1.3c0.1,1.2,0.2,2.3,0.3,3.5c4.6-0.5,9.3-0.9,13.9-1.4
			c1.5-4.5,13.9-8.6-2.4-12.7c8.7-1.8,14.5-3.1,21.6-4.6c-2.5-3.8-4.4-6.5-6.2-9.2c0.5-1.3,1-2.5,1.5-3.8c7.5,2.5,15,5,22.5,7.5
			c-2.7,6.4-5.5,12.7-8.7,20.1c3.1-0.3,5.3-0.6,7.5-0.8c-5.1,7.6-10,14.9-14.8,22.2c5-1.7,10-3.4,16.7-5.7
			c-1.5,3.3-3.1,6.7-5.1,11.1c8.2-4.5,15.7-8.6,23.2-12.8c0.6,0.8,1.2,1.7,1.7,2.5c-2.8,2.2-5.7,4.4-10.8,8.3c6.4,0,9.8,0,13.3,0
			c0.1,0.7,0.3,1.4,0.4,2.1c-16.5,3.2-33,6.4-49.5,9.6c0.1,1.6,0.3,3.2,0.4,4.8c9.9-0.8,19.8-1.6,29.9-2.4c0.3,2.1,0.7,5.4,1,7.2
			c10.1,3.6,19.2,6.7,28.3,9.9c-0.2,1.2-0.4,2.3-0.6,3.5c3-2.2,6-4.5,9.1-6.7c0.8,0.7,1.6,1.3,2.4,2c-3.2,3.8-6.4,7.5-9.1,10.6
			c1,9.4,2.1,18.9,3.3,29.9c6.6,5.2,8.7-15.6,15.9-6.2c8.7,8.3-17.8,6.1-2.7,16.3c-3.5,0.7-7.2,1.4-10.8,2.1c0,0.8-0.1,1.7-0.1,2.5
			c4.8,1,9.6,2.1,15.5,3.3c-3.9,8.4-6.9,15.9,4.5,19.8c1.3,0.4,0.9,5.7,1.6,11.1c-0.1,0,3.1,0.8,8.2,2.2
			C758,436.1,751.5,438.1,743.3,440.6z"/>
	</g>
	<g>
		<path class="st0" d="M145.6,402.4c-0.5,1.4,2.2,5.5,3.7,5.6c4.9,0.3,9.8-0.6,14.7-1c0.5-1.1,1-2.2,1.5-3.2
			c-4.8-2.2-9.4-5-14.4-6.4C149.7,396.9,146.3,400.2,145.6,402.4z"/>
	</g>
	<g>
		<path class="st0" d="M249.9,451.7c11.4,4.4,20.7,4.5,30.5-5.2C269,442.7,259.2,440.2,249.9,451.7z"/>
	</g>
	<g>
		<path class="st0" d="M298.6,453c-5.1,3.3-10.1,6.6-15.7,10.2c8.9,5.9,8.9,5.9,24.8-9.4c-3.6-1.4-6.9-2.8-10.3-4.2
			C297.8,450.8,298.2,451.9,298.6,453z"/>
	</g>
	<g>
		<path class="st0" d="M291.9,424.2c0.3-5.2-1.4-11.2-4-15.8c-3-5.4-7.2-11.8-12.4-13.9c-4.8-1.9-11.6,1.5-17.8,2.6
			c0-5.4,0-11,0-17.8c-8.5,0.9-15.8,1.6-25.3,2.5c-3.5-5-1-9.1,12-13.4c2.3-0.8,5.9-2.9,5.9-4.5c0-2.4-1.9-6.2-4.1-7.1
			c-3.7-1.6-8.1-1.3-12.1-2.1c-4.4-0.9-9.7-0.8-13-3.3c-9.1-7.1-17.5-5.8-26.9-1.6c3.2,4.9,5.8,8.8,7.9,12c-10.2,0-19,0-27.9,0
			c2.7,7.4,5.5,15.3,8.3,23.2c-0.9,0.3-1.7,0.5-2.6,0.8c-4.4-8.3-8.8-16.6-12.9-24.4c-2.9,0.6-7,1.4-11.6,2.3
			c1.7,4.9,5.2,9.9,4.5,14.1c-0.7,4.4-5.4,8.2-8.3,12.2c10.8,4.4,18.9,7.6,27,10.8c-1.2,11.8,9.2,13.1,16.3,16.2
			c1.8,0.8,6.6-5,10-7.8c7.2,9.4,15,18.5,21.6,28.4c6.6,9.8,13.6,6.1,21.6,2.6c9.7-4.2,19.6-8.3,29.8-10.7
			C283.1,428.5,291.2,434.9,291.9,424.2z"/>
	</g>
	<g>
		<path class="st0" d="M175,445.4c-3.5,0.5-6.4,4.4-8.1,5.6c5.5,3,8.6,5.5,12.1,6.5c5.2,1.4,11.9,4.1,15.7,2
			c9.5-5.1,18.1-5.4,27.7-1.2c1.6,0.7,5-2.4,8.3-4.2C212.1,442,193.5,442.8,175,445.4z"/>
	</g>
	<g>
		<path class="st0" d="M339.7,346.5c-0.4-0.2,0.6-2.1,0.2-2.8c-1.6-3.3-2.9-8.5-5.3-9.2c-8.8-2.4-8.4-9-9.2-15.5
			c-0.2-1.8-1.8-3.5-3.2-6c-2.2,3.1-3.8,5.4-5.2,7.2c-3.7-2-7.3-4-10.6-5.8c2.3-3.8,4.8-7.9,6.7-11c-8-4.7-14.6-8.5-23.7-13.7
			c-0.3,6-3.1,13.3-0.5,17.1c8.5,12.9,18.9,24.5,28.3,36.4c4.9-0.7,9.7-1.3,17.2-2.4c-7.2,4.3-11.9,7.1-14.5,8.6
			c4.6,22.3,33,22.8,34.9,46.3C353.4,377.9,358.6,358.4,339.7,346.5z"/>
	</g>
	<g>
		<path class="st0" d="M499.6,512.7c25.9-10.6,50.2-16.9,64.1-43.3c-17.1,7.8-32.3,14.8-43.3,19.8
			C512.6,498,507.2,504.1,499.6,512.7z"/>
	</g>
	<g>
		<path class="st0" d="M472.3,516.7c14.2-4.8,29.1-25.9,25.5-38.6C489.6,490.5,481.5,502.8,472.3,516.7z"/>
	</g>
	<g>
		<path class="st0" d="M481.9,385.5c-9.2-2.4-14.9-3.9-20.6-5.4c-0.4,2.2-0.9,3.1-0.7,3.9c1.1,6.3,2.4,12.6,3.6,19
			c3.8-4.1,7.7-8.3,11.5-12.4C476.4,389.8,477.4,389.1,481.9,385.5z"/>
	</g>
	<g>
		<path class="st0" d="M549.2,405.3c3.8-1.3,6.3-2.2,9.4-3.3c-2.2,5.5-4,10.3-6.3,16.1c14.9,0.9,24.9-9.9,27.9-26.8
			c-5.6,2.1-11.2,5.3-17,5.9C557.5,397.8,551.1,394.6,549.2,405.3z"/>
	</g>
	<g>
		<path class="st0" d="M446.4,539c2.1,0.4,4.1,0.8,6.2,1.2c2.1-10.7,4.2-21.4,6.3-32c-2-0.4-4-0.8-6-1.1
			C450.7,517.8,448.5,528.4,446.4,539z"/>
	</g>
	<g>
		<path class="st0" d="M663.6,435c-1.1-12,3.7-15.8,15.1-14.6c3.6,0.4,7.8-4.2,10.5-5.8c1.3,3.1,2.5,6.2,3.8,9.3
			c4-5.1,8.1-10.2,12.7-16c-18.6,3.3-37.6,6.7-59.6,10.6c-13.9-10.1-12.4,8.6-19.1,19.9c0.3-6.4,0.4-8.7,0.7-15.2
			c-7.5,5.8-12.2,9.5-17.5,13.6c-7.5-5.2-8.9,3.7-13.1,8.9c2.8,1.3,4.6,2.1,6.7,3c-3.6,1.4-6.8,2.7-10.1,4
			c26.1,4.2,45.6-8.4,64.9-24c0,3,0,5.4,0,8c4.3,0.3,8.4,0.6,12.9,1c-0.2,2.3-0.4,4.4-0.6,7.5c3.7-1.3,6.4-2.2,9.1-3.1
			c0.6-3.8,1.1-7.7,1.8-12.3C675.3,431.7,669.5,433.4,663.6,435z"/>
	</g>
	<g>
		<path class="st0" d="M613.9,400c-0.1-0.4,4.9-1.5,7.1-2.8c3.6-2.2,7.1-4.8,10.4-7.5c1.2-1,1.8-2.8,2.6-4.3
			c0.8,1.5,1.4,3.2,2.5,4.3c1.5,1.3,3.8,3.1,5.4,2.8c4.7-0.8,9.3-2.5,13.9-3.9c-0.4-3.2-0.9-6.4-1.3-10c-4.6,3.2-8.5,5.9-14.3,10
			c3.6-7,6-11.5,8.3-16c-3.9-1.2-7.8-2.4-11.3-3.5c-2.7,2.5-5.3,4.9-7.4,6.9c-2.3-2.1-4.6-4.2-5.9-5.3
			c-13.9,15.7-27.2,30.6-40.4,45.5c0.9,0.9,1.8,1.8,2.7,2.7c4-0.8,8.1-1.5,12-2.6C606.6,414,616.6,413.2,613.9,400z"/>
	</g>
	<g>
		<path class="st0" d="M596.7,347.1c0.8,3.8,1.7,8.7,2.4,12.1c-4.4,1.5-8.5,2.9-12.7,4.4c0.6,1.2,1.1,2.4,1.7,3.7
			c8.7-1.1,21.5,3.7,18.9-13.5c-0.2-1.3,3.4-3,4.8-4.7c1.4-1.7,2.5-3.8,3.6-5.7c-5.8-0.4-10.1-0.7-14.3-0.9c0-1,0.1-2,0.1-3
			c6.3-0.4,12.6-0.8,18.9-1.2c-17-7.9-29.5,2.2-42.9,7.9c2.9,4.6,5,7.7,8.2,12.8C589.8,354.3,593.5,350.5,596.7,347.1z"/>
	</g>
	<g>
		<path class="st0" d="M659.2,395c6.2,1.7,12.7,2.5,19.1,3.6c-15.4,3.7-17.1,5-16.4,16.9c18.9-11.4,36.5-22,54-32.6
			c-0.3-1.1-0.5-2.2-0.8-3.3c-3.1-0.6-6.4-2.1-9.2-1.5c-16.5,3.4-33,7.2-49.5,10.9C657.3,391.1,657.8,394.6,659.2,395z"/>
	</g>
	<g>
		<path class="st0" d="M414,396c-1.5,2-2,6.7-0.7,8.3c2.7,3.3,7,5.3,11.5,8.4c1.4-5.1,2.3-8.3,3.2-11.4c3,1.4,4.9,2.3,6.8,3.2
			c1.2-0.6,2.4-1.3,3.6-1.9c-2.4-8.4-4.8-16.7-7.6-26.4C424,384.1,418.6,389.8,414,396z"/>
	</g>
	<g>
		<path class="st0" d="M694.1,356.6c-4.6,2.1-9.3,4.2-14.3,6.5c-14.3-10.2-20.2-8.6-30.2,9c5.8-2.2,11.7-4.5,18.3-7
			C678.6,375.6,678.6,375.6,694.1,356.6z"/>
	</g>
	<g>
		<path class="st0" d="M524.6,406c4.9-6.7,9.2-13.9,13.7-20.8c-0.1,0.1-0.2,0.2-0.3,0.3c0-3.3,0-6.6,0-11.2
			c-7.3,10.1-13.7,18.7-19.7,27.6c-0.9,1.3,0.1,3.9,0.2,5.8C520.5,407.2,523.6,407.4,524.6,406z"/>
	</g>
	<g>
		<path class="st0" d="M554.5,277.6c-10.2,2.8-17.6,4.9-28,7.8C540.6,294.8,545.6,293.2,554.5,277.6z"/>
	</g>
	<g>
		<path class="st0" d="M550.4,374.8c-4.5,3.9-8.3,7.1-12,10.3c0,2.4,0,4.9,0,11c10.5-10.8,18.9-19.3,27.2-27.9
			c-0.9-1.1-1.7-2.2-2.6-3.2c-6.4,1.4-12.7,2.8-20.5,4.6C546.9,372.5,549,373.9,550.4,374.8z"/>
	</g>
	<g>
		<path class="st0" d="M423.1,499c-3.1-0.7-5.6-1.4-8.2-2c-0.7,0.8-1.5,1.6-2.2,2.3c2.5,3.6,5.1,7.2,7.8,11.1c-6.2,0-12.5,0-19.3,0
			c3.4,5.6,6.4,10.3,11,17.9c5.9-10.2,11.5-20.1,17.2-29.9c-0.5-0.1-0.9-0.3-1.4-0.4c6-6.6,14.8-12.1,5.3-21.7
			C418.2,478.5,421.6,489.1,423.1,499z"/>
	</g>
	<path d="M756.8,420.1c-11.3-3.9-8.4-11.5-4.5-19.8c-5.9-1.3-10.7-2.3-15.5-3.3c0-0.8,0.1-1.7,0.1-2.5c3.6-0.7,7.3-1.4,10.8-2.1
		c-15.1-10.2,11.4-8,2.7-16.3c-7.2-9.5-9.3,11.4-15.9,6.2c-1.2-10.9-2.3-20.5-3.3-29.9c2.6-3.1,5.8-6.8,9.1-10.6
		c-0.8-0.7-1.6-1.3-2.4-2c-3,2.2-6,4.5-9.1,6.7c0.2-1.2,0.4-2.3,0.6-3.5c-9.1-3.2-18.2-6.4-28.3-9.9c-0.2-1.8-0.7-5.1-1-7.2
		c-10.1,0.8-20,1.6-29.9,2.4c-0.1-1.6-0.3-3.2-0.4-4.8c16.5-3.2,33-6.4,49.5-9.6c-0.1-0.7-0.3-1.4-0.4-2.1c-3.4,0-6.9,0-13.3,0
		c5.1-3.9,7.9-6.1,10.8-8.3c-0.6-0.8-1.2-1.7-1.7-2.5c-7.5,4.1-15,8.3-23.2,12.8c2-4.4,3.6-7.8,5.1-11.1c-6.7,2.3-11.7,4-16.7,5.7
		c4.9-7.3,9.8-14.6,14.8-22.2c-2.2,0.2-4.3,0.5-7.5,0.8c3.2-7.4,5.9-13.8,8.7-20.1c-7.5-2.5-15-5-22.5-7.5c-0.5,1.3-1,2.5-1.5,3.8
		c1.8,2.7,3.6,5.4,6.2,9.2c-7.2,1.5-12.9,2.8-21.6,4.6c16.2,4.1,3.8,8.2,2.4,12.7c-4.6,0.5-9.3,0.9-13.9,1.4
		c-0.1-1.2-0.2-2.3-0.3-3.5c2.8-0.4,5.6-0.7,10.3-1.3c-6.1-7.1-11.4-13.2-14.6-17c-9.2,3.1-16,5.3-22.8,7.5c-1.3-4.7-2.7-9.5-4-14
		c-4.9-6.7-27.5,2.4-15.5-18.6c-10.1,4.5-19.9,8.9-29.7,13.3c-0.5-1-1-2-1.5-3c5.7-2.9,11.4-5.7,15.7-7.9c-3.2-4-7.8-7.3-7.9-10.6
		c-0.1-4.1,3.5-8.3,6.9-15.3c-6,3.6-9.2,5.6-13.8,8.3c-5.3-8-10.2-15.6-16.2-24.6c-1.9,0.2-6.4,0.5-8.8,0.8
		c-0.8-3.7-0.8-7.6-2.5-10.3c-2.6-4.2-5.8-8.9-9.9-11.1c-12.2-6.7-22.4-17.1-37.8-18.6c-16-1.6-31.6-6.4-47.5-9.1
		c-5.7-0.9-11.9,0.5-18.5,0.9c-4.5-10.2-9.7-3-15.3,2.8c-2.7-3.1-5.4-6.2-8.5-9.8c-2.7,3-5.1,5.6-7.5,8.2c-2.2-2.6-4-4.8-6-7.2
		c-1.5,2.8-2.7,5.1-5.2,10c-2.5-6.6-4.1-10.5-5.7-14.8c-3.1,3.4-6,6.6-8.3,9.1c-4.9-3.4-9.1-8.5-12.5-8c-3.5,0.5-6.2,6.4-9.8,10.6
		c-6.4-8.6-11.8-7.3-17.1,2.8c-2.2,4.1-5,15.4-13.3,4.4c-4.7,3.9-16-3.3-15.6,9.4c0,0.3-4.6,1.7-6.1,0.8c-2.4-1.4-4.1-4.2-7.2-7.7
		c0.8,7.7,1.4,13.3,2.3,21.3c3.9-4.4,6.2-7,9.1-10.2c2.7,2.5,5,4.7,7.9,7.5c-7,3.2-13.1,5.9-20.7,9.4c-6.3-3.8-5.9-26.3-23.9-10.5
		c2.9,1.3,5.3,2.3,7,3.1c-0.4,5.2-0.7,10.1-1,14c-3.6,4.5-7.2,9-9.2,11.4c-7.7,1-14.4,1.6-20.9,2.9c-4.9,0.9-9.6,3.1-14.6,3.9
		c-18,2.8-36.1,4.8-54,8.2c-4.3,0.8-7.7,6-11.6,9.2c0.7,0.9,1.4,1.8,2.2,2.7c3.6,0,7.2,0,10.8,0c0.1,0.6,0.1,1.3,0.2,1.9
		c-2,0.9-4.1,1.8-6.3,2.7c2.2,2.8,4.2,5.4,7.6,9.8c-13.6,0-25.2,0-38.8,0c-1.8,3.2-5.4,9.6-9,16.1c4.1,2,7.8,3.8,11.7,5.8
		c-2.9,19.2-21.3,12.6-30.8,20.4c0.2,2.2,0.5,4.9,1.2,10.8c-15.9-13.5-11.5,4.9-17.7,8.8c-1.4-3-2.3-5.1-3.7-8.2
		c-2.1,4.9-3.6,8.6-5.1,12.2c1.1-0.4,2.1-0.8,3.2-1.3c2.7,5,5.3,9.9,9.7,18c-10.7-1.5-17.3-2.4-24.4-3.3c-0.9,5.2-1.9,11.3-3.7,22.4
		c12.6-16.5,13.2,0.9,18.9-1.3c7.5-3.1,15.1-6.1,23.7-9.6c-4.6-0.9-7.7-1.6-12-2.4c13.6-6.5,18.3-4.6,19.9,7.2
		c20.5-12.3,22,13.5,34.7,17.7c-2.9-0.2-5.9-0.4-8.8-0.6c-9.4-2.8-18.9-5.6-28.3-8.4c-0.4,0.8-0.8,1.6-1.3,2.4
		c3.2,1.9,6.5,3.9,10.2,6.1c-17.5,6.2-17.4,6.2-25.4,24.9c-0.7,1.6-4.3,3.2-6.2,2.8c-10.2-1.9-20.2-4.5-28.2-6.3
		c-9.2,5.7-18.3,9-23.6,15.5c-4.5,5.6-4.6,14.8-6.5,21.8c6.8,3.2,13.2,6.2,19.7,9.3c0.5-0.9,0.9-1.9,1.4-2.8
		c-4.5-3.5-8.9-7-13.4-10.5c11.3,0.3,21.3,2.6,30.7,6.3c2.8,1.1,4.2,5.9,6.3,9c4.2-5.1,8.4-10.2,14.5-17.7
		c1.1,8.2,1.8,13.9,2.5,19.3c0.4-0.2,1-0.4,1.7-0.7c-2.3,1.6-4.5,3.3-7,4c-3.6,1.1-7.6,0.8-11.4,1.2c1.1,3.3,2.3,6.6,3,8.5
		c5.7-2.9,9.3-6,13.2-6.4c8.2-0.9,16.5-0.4,24.8-0.4c-6.8-2.6-13.6-5.2-20.4-7.8c-2.1-12-4.2-24.1-6-34.6c6-4.4,11.4-8.4,17.1-12.6
		c1.4,0.6,4.1,1.9,6.9,3.1c1.6-3.1-4.2-11.2,6.1-8.7c1.2,0.3,5.8-5.2,5.4-7.5c-1.8-12.3,4.4-5.6,8.6-4.1c0.2,4.6,0.5,9.2,0.8,14.3
		c2.6-0.7,4.6-1.3,6.6-1.9c2.3,8.4-11.2,12.1-26.7,8.5c2.2,1.8,4.3,4.4,6.7,4.6c8,0.8,16.7-2.5,20,10.1c1.1,4,10.9,5.6,16.7,8.4
		c0,1.3-0.1,2.7-0.1,4c-4.3,1.2-8.6,2.4-15.9,4.5c8.5,1.2,14.2,2,21,2.9c-0.9-4.6-1.7-8.5-3.3-16.4c20.4,13.4,45.7,10.4,59.9,33.6
		c-9.9-2.6-18.3-4.8-27.3-7.2c-0.8-2.4-1.7-5.4-3.8-11.8c-4.3,13-10,20-22,14.6c0.9-1.4,2-3.4,3.2-5.3c-13.2,8.4-21.3,0.2-30.4-7.8
		c-3.3-2.9-9.7-2.5-15.2-1.6c8.6,4.9,17.3,9.8,27.8,15.8c-7.4,3.4-12.6,5.7-17.7,8c1.2,10.7,6.7,10.8,14,5.1
		c1.4,3.2,2.4,5.6,3.5,8.1c21.9-10.5,35.4,6.7,52.4,15.1c-16.4,5-32.8,10.1-47.3,14.5c2,1.8,5,4.5,8,7.3c-2.6,2.4-5.2,4.9-9.4,8.9
		c0.6,2.5,1.9,7.5,3.7,14.4c7.3-6.2,13.6-11.5,22.3-18.9c-1.1,7.1-1.6,10.6-1.9,12.7c4.1,0.9,7.9,1.7,11.7,2.5
		c-1.8-3.9-3.5-7.7-5.3-11.6c0.8-0.7,1.6-1.3,2.4-2c4.9,2.8,9.8,5.6,14.8,8.4c0.3,1.4,0.7,2.7,1,4.1c-3.4,1.2-6.9,2.5-10.3,3.7
		c8.5,13.9,13.9-0.7,21.4-3.2c-0.1,2-0.6,3.2-0.2,4c1.1,2.4,2.5,4.6,3.8,6.9c0.4-2.2,0.5-4.6,1.4-6.5c1.3-2.8,3.2-5.3,5.1-8.4
		c-1.3-2.8-3.1-6.9-5-11c1.1-0.6,2.1-1.2,3.2-1.8c1.2,1.4,2.2,3.7,3.6,4c3.8,0.7,7.7,0.5,11.6,0.7c-0.8,4.1-3.1,8.6-2,12.1
		c1.5,4.7,5.6,8.6,9,13.4c4.5,0,10,0,13.8,0c-3-4.9-6.3-10.4-9.2-15.2c6.8-0.3,11.9-0.6,17.8-0.9c-0.9,1.7-1.8,3.6-2.7,5.4
		c1,0.4,1.9,0.9,2.9,1.3c1.6-3.5,3.1-7,5.5-12.3c4.8,1.4,12.5,5.7,14.4,3.9c12.4-12,15.4,4,22.9,5.6c-35.1,8.1-35.1,8.1-35.3,14.3
		c25.3-8.3,50.9-13.2,77.1-4.3c3.8,1.3,10.4,4.7,10.2,6.2c-1.7,10.1,6.8,15,10.4,22.1c6,11.9,14.1,22.8,21,34.3
		c5.6,9.3,14.3,18.7,15,28.5c0.7,9.4-7,19.5-10.9,29c8.2,1,19.2,2.3,30.2,3.6c12.9,0,25.8,0,38.8,0c3.9-1.2,7.8-2.4,13.6-4.2
		c-19.6-22.6-23.6-48.1-16.7-76.8c2.4-10.2,5.9-13,15-12.1c0.5,0,1-0.7,1.6-1.1c-2-1.3-3.9-2.5-7.2-4.7
		c10.4-8.6,19.9-16.4,29.4-24.2c1,1.1,2,2.3,3,3.4c-1.1,1.8-2.2,3.6-5.3,8.6c12.6,0,23.3,0.5,33.9-0.2c4.5-0.3,8.7-4.3,13.2-4.6
		c7.1-0.5,14.3,0.6,21.5,1c0.1-1.6,0.2-3.2,0.4-4.7c-16.3-3.3-32.6-6.7-50.3-10.3c3.4-2.2,7.3-5,11.4-7.2c8-4.4,16.2-8.5,24.3-12.7
		c-4,0.5-7.9,1-15.4,2c6.9-6.9,11.3-12.3,16.7-16.4c1.9-1.4,6.9-0.6,9.2,1.1c1.3,0.9,0,5.5-0.1,8.4c10.1-1.6,20.2-3.1,26.2-4
		c4.5,8,7.9,14,11.3,20c1-0.5,2.1-1,3.1-1.6c-1.4-2.6-2.8-5.1-6.6-11.9c9.6-0.1,16.3-1.2,22.6-0.1c16.1,2.8,32.1,11.2,47.2-2.1
		c-5.4-4-10.3-5.9-15.4,1.9c-1.2,1.7-7.8-0.1-11.9-0.3c5.1-8.8-3-3.4-4.9-4.3c-1-0.4-3.7,1.7-4,1.4c-10.8-13.9-21.7,0.4-32.5-0.3
		c0.3-3.7,0.6-7.5,0.8-10.2c3.9,1.6,7.6,3.1,13.5,5.5c-2.1-4.9-3.1-7.3-4.3-10c5.8-2.1,10.8-4,16.3-6c-5.5-1.5-10.1-2.7-14.7-4
		c-9.7,4.9-17.3,16.6-30.6,9.8c-1.4-0.7-2-3.1-3-4.7c-4.6,1.5-9.3,3.1-13.9,4.6c-0.7-0.8-1.4-1.6-2.1-2.3c8.3-8.1,16.6-16.2,23.6-23
		c5.8,3.7,9.2,5.8,12.4,7.8c-2.2,2.4-4.6,5-7.1,7.6c3.7-2.1,7.2-4.8,11.2-6c5.5-1.8,10.4-14.6,17.3-1.7c15-11.4,35.8-3.5,51-14.8
		c1.2-0.9,5.2,0.8,7,2.3c11.1,9.3,17.4,4.3,23.2-6.5c1.5-2.7,9.7-5.1,10.4-4.3c9.5,12.5,17.8-1.4,26.9-1.2c-2.4-2.1-4.8-4.2-7.6-6.6
		c5.6-3.6,10.7-6.8,17.6-11.2c-3.5,7.3-5.9,12.3-8.3,17.4c8.2-2.5,14.6-4.5,23.3-7.1c-5.2-1.4-8.3-2.2-8.2-2.2
		C757.7,425.9,758.1,420.6,756.8,420.1z M164,407c-4.9,0.4-9.9,1.3-14.7,1c-1.5-0.1-4.1-4.2-3.7-5.6c0.7-2.2,4.1-5.4,5.5-5.1
		c5,1.4,9.6,4.2,14.4,6.4C165,404.8,164.5,405.9,164,407z M222.4,458.3c-9.6-4.2-18.2-3.8-27.7,1.2c-3.8,2-10.6-0.6-15.7-2
		c-3.5-1-6.6-3.5-12.1-6.5c1.7-1.2,4.6-5.2,8.1-5.6c18.6-2.6,37.1-3.4,55.8,8.7C227.4,455.9,224.1,459,222.4,458.3z M248.2,440.4
		c-8,3.4-15,7.2-21.6-2.6c-6.6-9.8-14.4-18.9-21.6-28.4c-3.4,2.8-8.2,8.6-10,7.8c-7.1-3.2-17.5-4.4-16.3-16.2
		c-8.1-3.2-16.1-6.5-27-10.8c2.9-4,7.6-7.8,8.3-12.2c0.7-4.3-2.8-9.2-4.5-14.1c4.5-0.9,8.7-1.8,11.6-2.3c4.2,7.9,8.6,16.2,12.9,24.4
		c0.9-0.3,1.7-0.5,2.6-0.8c-2.8-7.9-5.7-15.8-8.3-23.2c8.9,0,17.6,0,27.9,0c-2.1-3.1-4.6-7-7.9-12c9.4-4.3,17.9-5.5,26.9,1.6
		c3.2,2.5,8.5,2.5,13,3.3c4.1,0.8,8.5,0.5,12.1,2.1c2.1,0.9,4.1,4.6,4.1,7.1c0,1.6-3.6,3.7-5.9,4.5c-13,4.3-15.6,8.5-12,13.4
		c9.5-0.9,16.7-1.7,25.3-2.5c0,6.7,0,12.4,0,17.8c6.2-1.1,13-4.5,17.8-2.6c5.2,2.1,9.4,8.5,12.4,13.9c2.6,4.6,4.3,10.6,4,15.8
		c-0.6,10.7-8.7,4.2-13.9,5.5C267.8,432.1,257.9,436.2,248.2,440.4z M249.9,451.7c9.3-11.5,19-9,30.5-5.2
		C270.6,456.2,261.3,456.1,249.9,451.7z M282.9,463.2c5.6-3.6,10.7-6.9,15.7-10.2c-0.4-1.1-0.8-2.2-1.2-3.3
		c3.4,1.4,6.7,2.7,10.3,4.2C291.8,469.1,291.8,469.1,282.9,463.2z M319.1,427.2c-1.5-0.2-2.9-0.3-4.4-0.5c-3.9-7.1-7.9-14.2-12-21.6
		c10.4-5.1,16.5,0.8,19.8,8.2C324,416.8,320.4,422.6,319.1,427.2z M320,349.4c2.6-1.5,7.3-4.3,14.5-8.6c-7.5,1-12.4,1.7-17.2,2.4
		c-9.4-11.8-19.8-23.5-28.3-36.4c-2.5-3.8,0.2-11.1,0.5-17.1c9.1,5.3,15.7,9.1,23.7,13.7c-1.9,3.1-4.3,7.2-6.7,11
		c3.3,1.8,6.9,3.8,10.6,5.8c1.3-1.9,3-4.2,5.2-7.2c1.4,2.5,3,4.2,3.2,6c0.8,6.6,0.3,13.2,9.2,15.5c2.4,0.7,3.7,5.9,5.3,9.2
		c0.4,0.8-0.6,2.6-0.2,2.8c18.9,11.9,13.7,31.3,15.2,49.2C353,372.2,324.6,371.7,320,349.4z M414.8,364c1.7-2.6,4.3-4.6,6.6-6.8
		c1.6,2.9,4.1,5.7,4.6,8.8c0.4,2.5-1.7,5.4-2.5,7.3c-5.5,0.3-9.4,0.5-13,0.7C411.8,370.7,412.8,367.1,414.8,364z M372.9,325.7
		c2.5-5.9,5.7-11.5,8.6-17.3c4,3,8.2,5.7,11.8,9c1.8,1.6,2.5,4.3,4.6,8.2c-11.7-0.5-16.3,5.4-15.5,16.7c-5.9-2-10.1-3.4-12.4-4.2
		C371,333.4,371.4,329.3,372.9,325.7z M399.5,380.2c-13.6-7.5-21.5-17.5-14-34.9C390.4,357.7,394.9,369,399.5,380.2z M383.5,378.7
		c-20.8,0.2-24.3-3.6-25.1-17.7C364,365,372.7,371,383.5,378.7z M389.1,464.8c-5.1-1.9-11.8-5.7-13-10.1c-1.3-4.7,0-8.2-6.6-8
		c-1.3,0-3.5-3.6-4-5.9c-2.2-10.3-5.2-20.7-5.1-31c0-4.6,8.2-8.7,10-13.9c2.1-6.1,3.3-9.4,9.4-10c1.4-0.1,2.9,1.3,3.5,1.6
		c-1.6,5.7-3,10.9-4.5,16c0.7,0.3,1.4,0.7,2.1,1c2.5-2.1,4.9-4.3,6.2-5.4c6.3,5.4,11.9,9.8,17.2,14.6c4.8,4.3,9,7.6,3.5,15.9
		c-5.3,7.9-6.1,18.8-9.9,27.9C396.6,460.8,391,465.5,389.1,464.8z M394.1,491.1c1.6-8.2,24.5-22.9,33.4-22.8c1.9,0,3.7,1.3,5.5,2.1
		c-7.5,3.2-17.1,1.7-15.9,15c0.2,2.5-5.4,5.6-8.4,8.3c-1,0.9-2.4,1.3-3.7,1.9c6.1,9.3-1.4,11.3-7,9.8
		C395.5,504.7,393.2,495.7,394.1,491.1z M421.6,433.1c4.4,5.5,7,8.9,11.1,14c-11.3-2.5-13.5,1.8-10.3,11.5
		C412.1,450,422.4,443.1,421.6,433.1z M428,498c0.5,0.1,0.9,0.3,1.4,0.4c-5.7,9.9-11.3,19.7-17.2,29.9c-4.7-7.6-7.6-12.4-11-17.9
		c6.8,0,13.1,0,19.3,0c-2.8-3.9-5.3-7.5-7.8-11.1c0.7-0.8,1.5-1.6,2.2-2.3c2.6,0.6,5.1,1.2,8.2,2c-1.5-9.8-4.9-20.5,10.3-22.7
		C442.8,485.9,433.9,491.4,428,498z M434.9,404.6c-1.9-0.9-3.8-1.8-6.8-3.2c-0.9,3.1-1.8,6.3-3.2,11.4c-4.5-3.2-8.8-5.2-11.5-8.4
		c-1.3-1.6-0.8-6.3,0.7-8.3c4.6-6.3,10-11.9,16.8-19.8c2.8,9.7,5.2,18.1,7.6,26.4C437.2,403.3,436.1,403.9,434.9,404.6z
		 M705.9,377.9c2.8-0.6,6.1,1,9.2,1.5c0.3,1.1,0.5,2.2,0.8,3.3c-17.5,10.6-35.1,21.2-54,32.6c-0.7-11.9,1-13.2,16.4-16.9
		c-6.4-1.1-12.9-1.8-19.1-3.6c-1.4-0.4-1.9-3.9-2.8-6.2C672.9,385.1,689.4,381.3,705.9,377.9z M679.7,363.1c5-2.3,9.7-4.4,14.3-6.5
		c-15.5,19-15.5,19-26.3,8.4c-6.6,2.5-12.5,4.8-18.3,7C659.5,354.5,665.4,352.9,679.7,363.1z M620.2,338.1
		c-6.3,0.4-12.6,0.8-18.9,1.2c0,1-0.1,2-0.1,3c4.2,0.3,8.5,0.6,14.3,0.9c-1.2,1.9-2.2,4-3.6,5.7c-1.5,1.8-5,3.5-4.8,4.7
		c2.6,17.3-10.2,12.4-18.9,13.5c-0.6-1.2-1.1-2.4-1.7-3.7c4.1-1.4,8.3-2.9,12.7-4.4c-0.7-3.4-1.7-8.2-2.4-12.1
		c-3.2,3.4-6.8,7.2-11.1,11.7c-3.3-5.1-5.3-8.2-8.2-12.8C590.7,340.3,603.1,330.2,620.2,338.1z M565.5,368.2
		c-8.3,8.5-16.6,17.1-27.2,27.9c0-6.1,0-8.6,0-11c3.8-3.2,7.5-6.4,12-10.3c-1.4-0.9-3.5-2.3-7.9-5.2c7.8-1.7,14.1-3.2,20.5-4.6
		C563.8,366.1,564.7,367.2,565.5,368.2z M554.5,277.6c-8.9,15.5-14,17.2-28,7.8C536.9,282.5,544.4,280.5,554.5,277.6z M518.2,401.9
		c6-8.9,12.4-17.5,19.7-27.6c0,4.6,0,7.9,0,11.2c0.1-0.1,0.2-0.2,0.3-0.3c-4.5,7-8.8,14.1-13.7,20.8c-1,1.3-4,1.2-6.1,1.7
		C518.3,405.8,517.3,403.2,518.2,401.9z M452.6,540.3c-2.1-0.4-4.1-0.8-6.2-1.2c2.2-10.6,4.3-21.3,6.5-31.9c2,0.4,4,0.8,6,1.1
		C456.7,518.9,454.7,529.6,452.6,540.3z M464.1,403c-1.2-6.3-2.4-12.6-3.6-19c-0.1-0.8,0.3-1.6,0.7-3.9c5.8,1.5,11.4,3,20.6,5.4
		c-4.5,3.6-5.5,4.2-6.2,5.1C471.8,394.7,468,398.8,464.1,403z M472.3,516.7c9.1-13.8,17.3-26.2,25.5-38.6
		C501.4,490.8,486.5,511.9,472.3,516.7z M499.6,512.7c7.6-8.6,13-14.7,20.8-23.5c11-5,26.2-12,43.3-19.8
		C549.8,495.7,525.5,502.1,499.6,512.7z M552.3,418.1c2.3-5.8,4.1-10.6,6.3-16.1c-3.1,1.1-5.5,1.9-9.4,3.3c1.9-10.7,8.3-7.5,14-8
		c5.8-0.5,11.3-3.8,17-5.9C577.2,408.3,567.2,419.1,552.3,418.1z M586.2,418.8c-0.9-0.9-1.8-1.8-2.7-2.7
		c13.2-14.9,26.5-29.8,40.4-45.5c1.3,1.1,3.6,3.3,5.9,5.3c2.1-2,4.7-4.4,7.4-6.9c3.5,1.1,7.4,2.3,11.3,3.5c-2.3,4.5-4.7,9.1-8.3,16
		c5.8-4.1,9.7-6.8,14.3-10c0.5,3.6,0.9,6.8,1.3,10c-4.6,1.4-9.2,3.1-13.9,3.9c-1.6,0.3-3.9-1.5-5.4-2.8c-1.2-1-1.7-2.8-2.5-4.3
		c-0.8,1.4-1.4,3.3-2.6,4.3c-3.3,2.7-6.7,5.3-10.4,7.5c-2.2,1.4-7.2,2.4-7.1,2.8c2.7,13.2-7.3,14-15.6,16.3
		C594.3,417.4,590.2,418,586.2,418.8z M670.7,445.2c0.3-3.1,0.4-5.3,0.6-7.5c-4.5-0.3-8.6-0.7-12.9-1c0-2.6,0-5,0-8
		c-19.3,15.6-38.7,28.2-64.9,24c3.3-1.3,6.5-2.6,10.1-4c-2.1-0.9-3.9-1.8-6.7-3c4.3-5.1,5.7-14.1,13.1-8.9c5.3-4.2,10-7.8,17.5-13.6
		c-0.3,6.5-0.4,8.8-0.7,15.2c6.8-11.2,5.3-30,19.1-19.9c22-3.9,41-7.3,59.6-10.6c-4.6,5.8-8.6,10.9-12.7,16
		c-1.3-3.1-2.5-6.2-3.8-9.3c-2.7,1.6-6.9,6.2-10.5,5.8c-11.3-1.2-16.2,2.6-15.1,14.6c5.9-1.7,11.7-3.3,18-5.1
		c-0.7,4.6-1.2,8.4-1.8,12.3C677.1,443.1,674.4,444,670.7,445.2z M714.5,421.5c-3.1,2.5-5.9,5.4-8.8,8.1c4.1,0,8.3,0,12.4,0
		c0.1,0.7,0.1,1.3,0.2,2c-10.6,4.4-21.1,8.9-31.9,12.9c-1.6,0.6-4.1-1.4-6.2-2.3c2.2-1.7,5.3-3.1,5.9-5.3c1.7-6,3.2-8.5,9.8-4.5
		c2,1.2,6.7-2,10.2-3.2c-4.2-1.7-8.5-3.4-12.7-5c9.6-4.4,19.1-8.8,28.7-13.2c0.8,1.3,1.6,2.5,2.5,3.8
		C721.2,417,717.7,419,714.5,421.5z"/>
	<path d="M116.8,392.9c-0.1,0.1-0.1,0.3-0.2,0.4c0.4,0.1,0.7,0.2,1.1,0.3C117.4,393.4,117.1,393.2,116.8,392.9
		C116.8,393,116.8,392.9,116.8,392.9z"/>
</g>
</svg>
